# xmcd CD database file
#
# Track frame offsets:
#	182
#	26445
#	44340
#	58815
#	80307
#	93225
#	108357
#	126382
#	143057
#	158945
#	177107
#	188425
#	208657
#
# Disc length: 3032 seconds
#
# Revision: 0
# Processed by: cddbd v1.4PL0 Copyright (c) Steve Scherf et al.
# Submitted via: CDex 1.40Beta8
#
DISCID=a80bd60d
DTITLE=Living Chicago Blues - Volume 1
DYEAR=1978
DGENRE=Blues
TTITLE0=Your Turn To Cry/Jimmy Johnson
TTITLE1=Serves Me Right To Suffer/Jimmy Johnson
TTITLE2=Ain't That Just Like A Woman/Jimmy Johnson
TTITLE3=Feel Like Breaking Up Somebody's Home/Jimmy Johnson
TTITLE4=It's Alright/Eddie Shaw
TTITLE5=Out Of Bad Luck/Eddie Shaw
TTITLE6=Stoop Down Baby/Eddie Shaw
TTITLE7=Sitting On Top Of the World/Eddie Shaw
TTITLE8=My Baby's So Ugly/Eddie Shaw
TTITLE9=Come Home Darling/Left Hand Frank
TTITLE10=Blues Won't Let Me Be/Left Hand Frank
TTITLE11=One Room Country Shack/Left Hand Frank
TTITLE12=Linda Lu/Left Hand Frank
EXTD=YEAR: 1978 ID3G: 0
EXTT0=
EXTT1=
EXTT2=
EXTT3=
EXTT4=
EXTT5=
EXTT6=
EXTT7=
EXTT8=
EXTT9=
EXTT10=
EXTT11=
EXTT12=
PLAYORDER=
